# Blender v3.1.2 OBJ File: 'vintage.blend'
# www.blender.org
mtllib bottom.mtl
o bottom_Cube
v -8.000000 -5.000000 0.999999
v -8.000000 -8.000000 -0.000001
v -8.000000 -5.000000 1.999999
v 8.000000 -5.000000 1.000001
v 8.000000 -8.000000 0.000001
v 8.000000 -5.000000 2.000001
v -8.000000 -6.000000 1.999999
v -8.000000 -6.000000 2.999999
v -8.000000 -8.000000 2.999999
v 8.000000 -6.000000 2.000001
v 8.000000 -6.000000 3.000001
v 8.000000 -8.000000 3.000001
vt 0.000000 0.500000
vt 0.000000 0.437500
vt 1.000000 0.437500
vt 1.000000 0.500001
vt 0.000000 0.187501
vt 0.000000 0.000001
vt 1.000000 0.000000
vt 1.000000 0.187500
vt 0.000000 0.375000
vt 1.000000 0.375000
vt 0.000000 0.312501
vt 1.000000 0.312500
vn 0.0000 1.0000 0.0000
vn 0.0000 -1.0000 0.0000
vn -0.0000 0.0000 1.0000
usemtl Material
s off
f 1/1/1 3/2/1 6/3/1 4/4/1
f 9/5/2 2/6/2 5/7/2 12/8/2
f 3/2/3 7/9/3 10/10/3 6/3/3
f 7/9/1 8/11/1 11/12/1 10/10/1
f 9/5/3 12/8/3 11/12/3 8/11/3
