# Blender v3.1.2 OBJ File: 'simple.blend'
# www.blender.org
mtllib bottom.mtl
o bottom_Cube
v -8.000000 -6.000000 0.999999
v -8.000000 -8.000000 -0.000001
v -8.000000 -6.000000 1.999999
v -8.000000 -8.000000 1.999999
v 8.000000 -6.000000 1.000001
v 8.000000 -8.000000 0.000001
v 8.000000 -6.000000 2.000001
v 8.000000 -8.000000 2.000001
vt 0.000000 0.312500
vt 0.000000 0.250000
vt 1.000000 0.250000
vt 1.000000 0.312500
vt 1.000000 0.000000
vt 1.000000 0.125000
vt 0.000000 0.125000
vt 0.000000 0.000000
vn 0.0000 1.0000 0.0000
vn 0.0000 -1.0000 0.0000
vn -0.0000 0.0000 1.0000
usemtl Material
s off
f 1/1/1 3/2/1 7/3/1 5/4/1
f 6/5/2 8/6/2 4/7/2 2/8/2
f 4/7/3 8/6/3 7/3/3 3/2/3
