# Blender v3.1.2 OBJ File: 'vintage_frame.blend'
# www.blender.org
mtllib vintage_frame_left.mtl
o left_Cube.003
v 4.499996 -8.000003 0.000001
v 7.499996 -8.000004 0.000001
v 4.499996 -8.000003 -1.999999
v 4.500004 7.999998 -0.000001
v 7.500004 7.999996 -0.000001
v 4.500004 7.999998 -2.000001
v 5.499996 -8.000003 -1.999999
v 5.499996 -8.000003 -2.999999
v 7.499996 -8.000004 -2.999999
v 5.500004 7.999997 -2.000001
v 5.500004 7.999997 -3.000001
v 7.500004 7.999996 -3.000001
vt 1.000000 0.562500
vt 0.000000 0.562501
vt 0.000000 0.437500
vt 1.000000 0.437500
vt 1.000000 0.187501
vt 0.000000 0.187500
vt 0.000000 0.000000
vt 1.000000 0.000001
vt 0.000000 0.375000
vt 1.000000 0.375000
vt 0.000000 0.312500
vt 1.000000 0.312501
vn -1.0000 0.0000 0.0000
vn 1.0000 -0.0000 0.0000
vn -0.0000 -0.0000 -1.0000
usemtl Material
s off
f 1/1/1 4/2/1 6/3/1 3/4/1
f 9/5/2 12/6/2 5/7/2 2/8/2
f 3/4/3 6/3/3 10/9/3 7/10/3
f 7/10/1 10/9/1 11/11/1 8/12/1
f 9/5/3 8/12/3 11/11/3 12/6/3
